<?xml version="1.0" standalone="no"?>
<!DOCTYPE svg PUBLIC "-//W3C//DTD SVG 20010904//EN"
 "http://www.w3.org/TR/2001/REC-SVG-20010904/DTD/svg10.dtd">
<svg version="1.0" xmlns="http://www.w3.org/2000/svg"
 width="848.000000px" height="67.000000px" viewBox="0 0 848.000000 67.000000"
 preserveAspectRatio="xMidYMid meet">

<g transform="translate(0.000000,67.000000) scale(0.100000,-0.100000)"
fill="#ffffff" stroke="none">
<path d="M90 330 l0 -260 40 0 40 0 0 260 0 260 -40 0 -40 0 0 -260z"/>
<path d="M710 571 c0 -51 -2 -51 -172 -51 l-159 0 3 -52 3 -53 148 -3 147 -3
0 -59 0 -60 -150 0 -150 0 0 -65 0 -65 164 0 165 0 6 -44 c8 -53 6 -52 208
-48 l137 3 0 105 0 104 -102 155 -103 154 -72 1 c-65 0 -73 -2 -73 -19z"/>
<path d="M1080 584 c0 -10 70 -123 80 -129 4 -3 21 16 36 42 15 27 34 58 42
71 l14 22 -86 0 c-47 0 -86 -3 -86 -6z"/>
<path d="M1370 440 l-100 -150 0 -109 0 -110 123 -3 c67 -2 139 -2 160 0 l37
3 0 260 0 259 -60 0 -60 0 -100 -150z"/>
<path d="M2126 555 l-7 -35 -160 0 -160 0 3 -52 3 -53 148 -3 147 -3 0 -59 0
-60 -150 0 -150 0 0 -65 0 -65 164 0 164 0 6 -45 7 -45 95 0 c53 0 94 3 92 8
-19 35 -37 82 -42 108 -7 29 -5 32 25 38 17 3 60 6 95 6 52 0 64 -3 64 -16 0
-9 16 -32 35 -51 33 -33 39 -35 82 -30 50 5 73 25 73 63 0 31 -41 58 -130 84
-150 45 -213 93 -225 174 -5 33 -2 55 13 90 l21 46 -103 0 -104 0 -6 -35z"/>
<path d="M2817 546 c25 -68 17 -76 -77 -76 -80 0 -81 0 -111 35 -27 30 -37 35
-74 35 -34 0 -47 -5 -59 -22 -15 -21 -14 -24 2 -41 10 -10 59 -29 108 -42 127
-36 184 -66 217 -117 37 -57 38 -135 2 -202 l-24 -46 184 0 185 0 0 210 0 209
-97 3 -98 3 -3 48 -3 47 -84 0 -84 0 16 -44z"/>
<path d="M3580 540 l0 -50 -100 0 -100 0 0 -210 0 -210 175 0 175 0 0 260 0
260 -75 0 -75 0 0 -50z"/>
<path d="M4262 558 l-8 -33 -162 -3 -162 -2 0 -43 c0 -24 5 -48 12 -55 8 -8
56 -12 150 -12 l138 0 0 -60 0 -59 -147 -3 -148 -3 -3 -62 -3 -63 168 -2 168
-3 5 -40 5 -40 78 -3 77 -3 0 261 0 260 -80 0 -79 0 -9 -32z"/>
<path d="M4966 555 l-7 -35 -160 0 -160 0 3 -52 3 -53 148 -3 147 -3 0 -59 0
-60 -150 0 -150 0 0 -65 0 -65 162 -2 163 -3 9 -42 9 -43 78 0 79 0 0 260 0
260 -84 0 -84 0 -6 -35z"/>
<path d="M5350 380 l0 -210 150 0 150 0 0 -50 0 -50 85 0 85 0 0 260 0 260
-235 0 -235 0 0 -210z"/>
<path d="M6320 571 c0 -50 -4 -51 -150 -51 l-138 0 -6 -26 c-4 -14 -4 -41 0
-60 l6 -34 119 0 119 0 0 -60 0 -60 -120 0 -120 0 0 -105 0 -104 178 -3 c97
-2 194 -1 215 1 l37 3 0 259 0 259 -70 0 c-62 0 -70 -2 -70 -19z"/>
<path d="M6670 330 l0 -260 90 0 90 0 0 260 0 260 -90 0 -90 0 0 -260z"/>
<path d="M7060 380 l0 -210 150 0 150 0 0 -50 0 -50 85 0 85 0 0 260 0 260
-235 0 -235 0 0 -210z"/>
<path d="M7810 583 c0 -22 74 -283 81 -283 9 0 9 -1 49 148 16 62 30 119 30
127 0 12 -16 15 -80 15 -44 0 -80 -3 -80 -7z"/>
<path d="M8260 330 l0 -260 45 0 45 0 0 260 0 260 -45 0 -45 0 0 -260z"/>
<path d="M7690 252 l0 -182 56 0 c41 0 55 3 51 13 -2 6 -24 84 -47 172 -23 88
-46 164 -51 170 -5 5 -9 -68 -9 -173z"/>
<path d="M8031 262 c-24 -92 -46 -173 -48 -180 -4 -9 10 -12 51 -12 l56 0 0
174 c0 96 -4 177 -8 180 -4 2 -27 -71 -51 -162z"/>
</g>
</svg>
